<?xml version="1.0"?>
<svg xmlns="http://www.w3.org/2000/svg" xmlns:xlink="http://www.w3.org/1999/xlink" version="1.1" id="Capa_1" x="0px" y="0px" viewBox="0 0 480.033 480.033" style="enable-background:new 0 0 480.033 480.033;" xml:space="preserve" width="512px" height="512px"><g><link xmlns="" type="text/css" id="dark-mode" rel="stylesheet" class="active-path" style=""/><style xmlns="" type="text/css" id="dark-mode-custom-style" class="active-path"/><g>
	<g>
		<rect x="112.033" y="355.825" width="16" height="16" data-original="#000000" class="active-path" fill="#FFFFFF"/>
	</g>
</g><g>
	<g>
		<rect x="40.033" y="379.825" width="16" height="16" data-original="#000000" class="active-path" fill="#FFFFFF"/>
	</g>
</g><g>
	<g>
		<rect x="168.033" y="395.825" width="16" height="16" data-original="#000000" class="active-path" fill="#FFFFFF"/>
	</g>
</g><g>
	<g>
		<rect x="288.033" y="171.825" width="16" height="16" data-original="#000000" class="active-path" fill="#FFFFFF"/>
	</g>
</g><g>
	<g>
		<rect x="344.033" y="179.825" width="16" height="16" data-original="#000000" class="active-path" fill="#FFFFFF"/>
	</g>
</g><g>
	<g>
		<rect x="328.033" y="219.825" width="16" height="16" data-original="#000000" class="active-path" fill="#FFFFFF"/>
	</g>
</g><g>
	<g>
		<rect x="400.033" y="219.825" width="16" height="16" data-original="#000000" class="active-path" fill="#FFFFFF"/>
	</g>
</g><g>
	<g>
		<rect x="424.033" y="171.825" width="16" height="16" data-original="#000000" class="active-path" fill="#FFFFFF"/>
	</g>
</g><g>
	<g>
		<path d="M444.977,451.825l-13.744-27.576c-1.362-2.725-4.153-4.441-7.2-4.424h-56V283.377c58.024-4.576,104-58.168,104-123.552    c0-0.888,0-1.976,0-3.152v-0.272c-0.04-2.464-0.12-5.44-0.232-8.84c-0.8-24.128-3.416-69.976-8-82.472    c-1.156-3.178-4.186-5.285-7.568-5.264h-36.624l3.408-17.888l43.544-14.528l-5.056-15.2l-48,16    c-2.745,0.914-4.782,3.239-5.328,6.08l-4.864,25.536h-139.48c-3.353-0.003-6.352,2.086-7.512,5.232    c-4.6,12.496-7.2,58.344-8,82.472c-0.112,3.4-0.192,6.4-0.232,8.84v0.272c0,1.176,0,2.264,0,3.152    c0,65.384,45.976,118.976,104,123.552v136.48h-22.784c17.756-40.395-0.596-87.536-40.991-105.293    c-22.594-9.932-48.509-8.864-70.209,2.893l5.928-64.872c0.402-4.4-2.839-8.293-7.239-8.695c-0.253-0.023-0.507-0.034-0.761-0.033    h-208c-4.418-0.018-8.015,3.548-8.033,7.967c-0.001,0.254,0.01,0.508,0.033,0.761l16,175.656v31.616c0,4.418,3.582,8,8,8h176    c4.418,0,8-3.582,8-8v-8.08c13.824,10.441,30.676,16.087,48,16.08h224v-16H444.977z M192.033,451.825h-160v-16h160V451.825z     M192.729,419.825H31.337l-6.504-72h42.192c-5.285,11.24-1.121,24.656,9.6,30.928l41.6,24c3.647,2.108,7.788,3.212,12,3.2    c2.109,0.007,4.209-0.262,6.248-0.8c6.16-1.636,11.409-5.669,14.576-11.2l24-41.6c0.797-1.44,1.446-2.957,1.936-4.528h22.288    L192.729,419.825z M159.129,347.825l-22.024,38.144c-2.209,3.821-7.096,5.132-10.92,2.928l-41.6-24    c-3.826-2.209-5.137-7.102-2.928-10.928l3.568-6.144H159.129z M94.433,331.825l11.2-19.424c1.059-1.84,2.806-3.184,4.856-3.736    c0.679-0.177,1.378-0.268,2.08-0.272c1.405,0.003,2.785,0.375,4,1.08l38.76,22.352H94.433z M200.689,331.825h-24.216    c-1.917-5.138-5.555-9.452-10.296-12.208l-41.6-24c-11.477-6.63-26.157-2.701-32.787,8.777c-0.004,0.008-0.009,0.015-0.013,0.023    l-15.792,27.408H23.337l-6.504-72h190.4L200.689,331.825z M416.561,75.825h33.472c2.962,21.22,4.784,42.584,5.456,64h-51.12    L416.561,75.825z M270.033,75.825h130.232l-12.184,64H264.577C265.249,118.409,267.071,97.045,270.033,75.825z M264.033,159.825    c0-1.104,0-2.448,0.04-4h120.96l-8.856,46.496l15.712,3.008l9.432-49.504h54.712c0,1.552,0.04,2.896,0.04,4    c-0.04,59.552-43.104,108-96.04,108C307.097,267.825,264.033,219.377,264.033,159.825z M296.031,437.861    c-26.723,21.297-65.463,17.843-87.998-7.844v-1.808l8.224-90.448c27.642-22.029,67.908-17.479,89.937,10.163    C328.223,375.566,323.673,415.832,296.031,437.861z M303.825,451.825c6.147-4.603,11.605-10.061,16.208-16.208v0.208h99.056l8,16    H303.825z" data-original="#000000" class="active-path" fill="#FFFFFF"/>
	</g>
</g><g>
	<g>
		<path d="M285.681,364.793c-3.163,3.031-8.154,3.028-11.312-0.008c-3.118-3.123-3.118-8.181,0-11.304l-11.312-11.312    c-9.447,9.297-9.569,24.493-0.272,33.94c9.297,9.447,24.493,9.569,33.94,0.272c0.093-0.091,0.185-0.183,0.276-0.276    L285.681,364.793z" data-original="#000000" class="active-path" fill="#FFFFFF"/>
	</g>
</g></g> </svg>
